<svg id="Layer_1" enable-background="new 0 0 128 128" height="512" viewBox="0 0 128 128" width="512" xmlns="http://www.w3.org/2000/svg"><g><path d="m30.6 53.5c-.4 1.3-1.5 2.1-2.8 2.3l-5.8.6c-1.7.2-3 1.6-3 3.3v8.4c0 1.7 1.3 3.1 3 3.3l5.7.6c1.3.1 2.4 1.1 2.8 2.3.6 2.1 1.4 4.1 2.4 6 .6 1.2.5 2.6-.4 3.6l-3.5 4.4c-1.1 1.3-1 3.2.2 4.4l5.9 5.9c1.2 1.2 3.1 1.3 4.5.2l4.3-3.5c1-.8 2.5-1 3.6-.3 1.9 1 4 1.9 6.1 2.5 1.3.4 2.2 1.5 2.3 2.8l.6 5.5c.2 1.7 1.6 3 3.3 3h8.4c1.7 0 3.1-1.3 3.3-3l.6-5.5c.1-1.3 1.1-2.4 2.3-2.8 2.1-.7 4.1-1.5 6.1-2.5 1.2-.6 2.6-.5 3.6.3l4.3 3.5c1.3 1.1 3.2 1 4.5-.2l5.9-5.9c1.2-1.2 1.3-3.1.2-4.4l-3.5-4.4c-.8-1-1-2.4-.4-3.6 1-1.9 1.8-3.9 2.4-6 .4-1.3 1.5-2.2 2.8-2.3l5.7-.6c1.7-.2 3-1.6 3-3.3v-8.4c0-1.7-1.3-3.1-3-3.3l-5.8-.6c-1.3-.1-2.4-1-2.8-2.3-.6-2-1.4-3.9-2.4-5.7-.6-1.2-.5-2.6.3-3.7l3.7-4.6c1.1-1.3 1-3.2-.2-4.5l-5.9-5.9c-1.2-1.2-3.1-1.3-4.5-.2l-4.7 3.8c-1 .8-2.4 1-3.6.4-1.8-.9-3.7-1.7-5.6-2.3-1.3-.4-2.2-1.5-2.3-2.8l-.6-6c-.2-1.7-1.6-3-3.3-3h-8.4c-1.7 0-3.1 1.3-3.3 3l-.6 6c-.1 1.3-1.1 2.4-2.3 2.8-1.9.6-3.8 1.4-5.6 2.3-1.2.6-2.6.5-3.6-.4l-4.7-3.8c-1.3-1.1-3.2-1-4.5.2l-6.1 5.9c-1.2 1.2-1.3 3.1-.2 4.5l3.7 4.6c.8 1 1 2.5.3 3.7-.9 1.8-1.7 3.7-2.4 5.7z" fill="#3edbff"/><path d="m63.3 85.4h.7s.5 0 .7 0c11.4-.4 20.5-9.8 20.5-21.2 0-11.7-9.5-21.3-21.2-21.3s-21.3 9.5-21.3 21.2c0 6.6 3 12.8 8.2 16.8 3.6 2.7 7.9 4.3 12.4 4.5z" fill="#298aff"/></g><path d="m106.2 54.6-5.8-.6c-.6-.1-1.1-.5-1.3-1.1-.7-2.1-1.5-4.1-2.5-6-.3-.6-.2-1.2.2-1.7l3.7-4.6c1.6-2 1.5-5-.4-6.8l-5.9-5.9c-1.8-1.8-4.8-2-6.8-.4l-4.7 3.8c-.5.4-1.2.5-1.7.2-2-1-4-1.8-6-2.5-.6-.2-1-.7-1.1-1.3l-.6-6c-.3-2.6-2.5-4.6-5.1-4.5h-8.4c-2.6 0-4.8 2-5.1 4.5l-.6 6c-.1.6-.5 1.1-1.1 1.3-2 .6-4 1.4-5.9 2.4-.6.3-1.2.2-1.7-.2l-4.7-3.8c-2-1.6-5-1.5-6.8.4l-5.9 6c-1.8 1.8-2 4.8-.4 6.8l3.7 4.6c.4.5.5 1.2.2 1.7-1 1.9-1.9 3.9-2.5 6-.2.6-.7 1-1.3 1.1l-5.8.6c-2.6.3-4.6 2.5-4.5 5.1v8.4c0 2.6 2 4.8 4.5 5.1l5.7.6c.6.1 1.2.5 1.3 1.1.7 2.2 1.5 4.3 2.5 6.3.3.6.2 1.2-.2 1.7l-3.5 4.4c-1.6 2-1.5 5 .4 6.8l5.9 5.9c1.8 1.8 4.8 2 6.8.4l4.3-3.5c.5-.4 1.2-.5 1.7-.2 2 1.1 4.2 2 6.4 2.7.6.2 1 .7 1.1 1.3l.6 5.5c.3 2.6 2.5 4.6 5.1 4.5h8.4c2.6 0 4.8-2 5.1-4.5l.6-5.5c.1-.6.5-1.1 1.1-1.3 2.2-.7 4.3-1.6 6.4-2.7.6-.3 1.2-.2 1.7.2l4.3 3.5c2 1.6 5 1.5 6.8-.4l5.6-6c1.8-1.8 2-4.8.4-6.8l-3.5-4.4c-.4-.5-.5-1.2-.2-1.7 1-2 1.9-4.1 2.5-6.3.2-.6.7-1 1.3-1.1l5.7-.6c2.6-.3 4.6-2.5 4.5-5.1v-8.4c.1-2.5-1.9-4.7-4.5-5zm1 13.5c0 .8-.6 1.5-1.4 1.6l-5.7.6c-2 .2-3.7 1.6-4.3 3.6s-1.4 3.9-2.3 5.7-.7 4 .6 5.5l3.5 4.4c.5.6.5 1.5-.1 2.1l-5.9 5.9c-.6.5-1.5.5-2.1 0l-4.3-3.5c-1.6-1.3-3.8-1.5-5.6-.5s-3.8 1.8-5.8 2.4c-1.9.6-3.3 2.3-3.5 4.3l-.6 5.5c-.1.8-.8 1.4-1.6 1.4h-8.4c-.8 0-1.5-.6-1.6-1.4l-.6-5.5c-.2-2-1.6-3.7-3.5-4.3-2-.6-3.9-1.4-5.8-2.4-1.8-1-4-.8-5.6.5l-4.3 3.5c-.4.5-1.3.5-1.9-.1l-5.9-5.9c-.6-.6-.6-1.5-.1-2.1l3.5-4.4c1.3-1.6 1.5-3.7.6-5.5s-1.7-3.7-2.3-5.7-2.3-3.4-4.3-3.6l-5.7-.6c-.8-.1-1.4-.8-1.4-1.6v-8.4c0-.8.6-1.5 1.4-1.6l5.8-.6c2-.2 3.7-1.6 4.3-3.5s1.4-3.7 2.3-5.5c1-1.8.8-4-.5-5.6l-3.7-4.6c-.5-.6-.5-1.5.1-2.1l5.9-5.9c.6-.6 1.5-.6 2.1-.1l4.7 3.8c1.6 1.3 3.7 1.5 5.5.6 1.7-.9 3.5-1.6 5.3-2.2 1.9-.6 3.3-2.3 3.5-4.3l.6-6c.1-.8.8-1.4 1.6-1.4h8.4c.8 0 1.5.6 1.6 1.4l.6 6c.2 2 1.6 3.7 3.5 4.3 1.8.6 3.6 1.3 5.3 2.2 1.8.9 4 .7 5.5-.6l4.7-3.8c.6-.5 1.5-.5 2.1.1l5.9 5.9c.6.6.6 1.5.1 2.1l-3.5 4.8c-1.3 1.6-1.5 3.8-.5 5.6.9 1.7 1.7 3.6 2.3 5.5s2.3 3.3 4.3 3.5l5.8.6c.8.1 1.4.8 1.4 1.6zm-20.2-4c0 3.4-.7 6.7-2.2 9.7-.4.9-1.5 1.3-2.3.8-.9-.4-1.3-1.5-.8-2.3 1.2-2.6 1.8-5.4 1.8-8.2 0-10.8-8.7-19.5-19.5-19.5s-19.5 8.7-19.5 19.5c0 11.6 10.2 21 22.2 19.4 1-.1 1.9.5 2 1.5.2 1-.5 1.9-1.5 2-14 1.8-26.2-9-26.2-22.9 0-12.7 10.3-23 23-23s23 10.3 23 23zm-8.1 15.2c.6.7.6 1.8-.2 2.5-.2.2-.3.3-.5.4-.8.6-1.9.4-2.4-.4-.6-.8-.4-1.8.3-2.4l.4-.3c.6-.6 1.7-.5 2.4.2z" fill="#490599"/></svg>