<svg id="Capa_1" enable-background="new 0 0 509.916 509.916" height="512" viewBox="0 0 509.916 509.916" width="512" xmlns="http://www.w3.org/2000/svg"><g><g><path d="m494.363 300.458c3.91-94.658-5.619-145.858-115.383-126.83-67.365-4.796-52.354 122.736-51.997 120.078-2.732 15.818.894 38.346-21.827 30.63-37.803-5.887-76.345-7.227-114.267-1.269-67.658-41.019-51.483 68.048-41.246 104.749 18.237 94.138 163.226 46.431 231.794 52.09 124.589 11.803 110.532-88.388 112.926-179.448z" fill="#80aeff"/><path d="m369.19 113.512c3.668-116.804-102.38-97.009-184.968-94.274-41.153-2.252-81.715-6.212-123.035-6.508-41.72 10.95-39.704 52.717-38.154 88.539-9.215 66.676-13.49 134.125-11.47 201.432-2.507 63.154 68.803 57.967 113.347 58.616 67.362-2.515 138.592 15.02 204.055-.875 63.121-49.328 33.828-174.132 40.225-246.93z" fill="#ffb6bd"/></g><g fill="#2e386b"><path d="m375.785 249.752c-2.754-56.309 1.532-112.758-.338-169.044-3.119-30.483-22.194-61.216-51.997-71.808-15.448-4.582-37.291-2.809-53.332-4.242-30.967-1.236-64.314-1.964-95.335-2.509-.72-.106-20.641-.221-20.782-.063-39.687 4.042-84.956-12.492-121.926 10.105-36.366 24.546-27.81 84.124-31.452 122.848 3.766 58.114-11.364 205.336 44.915 233.725 52.413 26.14 121.247.176 179.217 5.554 28.018.039 56.799 1.492 84.918.861 65.259-2.19 69.998-75.361 66.112-125.427zm-64.389 105.151c-58.135.652-117.001-5.332-175.765.541-25.249 1.805-54.758 4.613-77.06-8.2-39.731-22.056-24.494-164.938-28.021-211.534 2.631-132.316 11.514-101.384 126.323-107.639 35.192-.964 78.075-2.245 113.276-3.425 9.451-.204 28.645-1.026 38.103-1.376 30.243 2.085 50.264 36.542 50.183 64.738.213 43.817-1.219 89.476-2.089 133.058-1.327 44.708 17.057 125.859-44.95 133.837z"/><path d="m288.527 185.7c-2.222-10.278-18.404-7.076-16.419 3.337 3.721 22.459 6.768 48.505-.835 70.377-30.883-26.679-54.168-61.023-82.781-90.133-15.651-11.708-33.759 13.138-17.726 24.424 29.888 23.943 60.383 48.899 84.615 78.782-23.668 6.897-52.862.217-73.324 11.73-10.985 27.974 126.666 45.775 112.548-50.231-.137-16.279-2.894-32.347-6.078-48.286z"/><path d="m470.477 196.747c-7.798 33.657 28.167 38.938 29.563 11.251 2.805-25.71-37.797-63.526-58.298-41.506-.893 12.749 26.141 7.017 28.735 30.255z"/><path d="m171.546 463.288c-5.877-4.28-8.326-17.727-17.871-13.884-15.273 8.898 15.058 39.931 23.226 47.122 10.892 10.505 38.452-.923 26.465-16.482-8.539-11.452-21.785-9.273-31.82-16.756z"/><path d="m460.749 294.607c11.794 28.663 56.637 12.711 47.266-17.184-10.901-33.962-59.583-15.489-47.266 17.184z"/><path d="m461.869 366.956c4.454 32.94 51.079 23.33 46.251-8.29-4.401-31.58-52.174-23.153-46.251 8.29z"/><path d="m255.75 490.623c6.19 34.891 59.227 17.724 49.475-14.007-10.068-30.411-55.535-16.95-49.475 14.007z"/><path d="m339.2 493.404c11.745 26.717 58.045 12.291 49.249-17.243-10.513-32.27-61.644-15.249-49.249 17.243z"/><path d="m481.707 430.356c-11.107 4.632-.09 18.578-7.706 26.496-6.409 11.721-22.099 4.524-27.619 18.364-19.794 34.374 57.551 24.275 47.098-33.984-.597-6.107-4.531-13.389-11.773-10.876z"/></g></g></svg>